<svg width="397.99501953124997px" height="101.6px" xmlns="http://www.w3.org/2000/svg" viewBox="51.00249023437502 24.200000000000003 397.99501953124997 101.6" style="background: none;" preserveAspectRatio="xMidYMid"><defs><linearGradient id="editing-gradient-gradient" x1="0" x2="1" y1="0.5" y2="0.5" gradientUnits="objectBoundingBox"><stop offset="0" stop-color="#e7a12f"></stop><stop offset="1" stop-color="#e7a12f"></stop></linearGradient></defs><g><g transform="translate(109.53499412536621, 92.5049991607666)"><path d="M24.05 0L22.56 0L9.50-25.66L9.50 0L4.49 0L4.49-35.01L9.96-35.01L23.29-8.64L36.65-35.01L42.09-35.01L42.09 0L37.11 0L37.11-25.66L24.05 0ZM81.10-30.00L81.10-5.00L81.10-5.00Q81.10-3.98 80.71-3.06L80.71-3.06L80.71-3.06Q80.32-2.15 79.64-1.46L79.64-1.46L79.64-1.46Q78.96-0.78 78.04-0.39L78.04-0.39L78.04-0.39Q77.12 0 76.10 0L76.10 0L56.10 0L56.10 0Q55.08 0 54.16-0.39L54.16-0.39L54.16-0.39Q53.25-0.78 52.56-1.46L52.56-1.46L52.56-1.46Q51.88-2.15 51.49-3.06L51.49-3.06L51.49-3.06Q51.10-3.98 51.10-5.00L51.10-5.00L51.10-30.00L51.10-30.00Q51.10-31.03 51.49-31.95L51.49-31.95L51.49-31.95Q51.88-32.86 52.56-33.53L52.56-33.53L52.56-33.53Q53.25-34.20 54.16-34.61L54.16-34.61L54.16-34.61Q55.08-35.01 56.10-35.01L56.10-35.01L76.10-35.01L76.10-35.01Q77.12-35.01 78.04-34.61L78.04-34.61L78.04-34.61Q78.96-34.20 79.64-33.53L79.64-33.53L79.64-33.53Q80.32-32.86 80.71-31.95L80.71-31.95L80.71-31.95Q81.10-31.03 81.10-30.00L81.10-30.00ZM76.10-30.00L56.10-30.00L56.10-5.00L76.10-5.00L76.10-30.00ZM106.10 0L100.59 0L87.08-35.01L92.46-35.01L103.34-6.20L114.26-35.01L119.60-35.01L106.10 0ZM125.59-35.01L130.59-35.01L130.59 0L125.59 0L125.59-35.01ZM139.58 0L139.58-35.01L165.09-35.01L165.09-30.00L144.58-30.00L144.58-20.00L162.08-20.00L162.08-14.99L144.58-14.99L144.58-5.00L165.09-5.00L165.09 0L139.58 0ZM172.58 0L172.58-35.01L198.10-35.01L198.10-30.00L177.59-30.00L177.59-20.00L195.09-20.00L195.09-14.99L177.59-14.99L177.59 0L172.58 0ZM205.08-35.01L210.08-35.01L210.08-5.00L228.08-5.00L228.08 0L205.08 0L205.08-35.01ZM234.08-35.01L239.09-35.01L239.09 0L234.08 0L234.08-35.01ZM245.34-35.01L251.37-35.01L260.72-21.90L270.12-35.01L276.17-35.01L263.77-17.65L276.44 0L270.39 0L260.72-13.45L251.12 0L245.07 0L257.74-17.65L245.34-35.01Z" fill="url(#editing-gradient-gradient)"></path></g></g><style>text {
  font-size: 64px;
  font-family: Arial Black;
  dominant-baseline: central;
  text-anchor: middle;
}</style></svg>